<svg width="28" height="28" viewBox="0 0 28 28" fill="none" xmlns="http://www.w3.org/2000/svg">
<mask id="mask0_410_3631" style="mask-type:alpha" maskUnits="userSpaceOnUse" x="0" y="0" width="28" height="28">
<rect width="28" height="28" fill="#D9D9D9"/>
</mask>
<g mask="url(#mask0_410_3631)">
<path d="M7.00004 16.3333H16.3334V13.9999H7.00004V16.3333ZM7.00004 12.8333H21V10.4999H7.00004V12.8333ZM7.00004 9.33325H21V6.99992H7.00004V9.33325ZM2.33337 25.6666V4.66659C2.33337 4.02492 2.56185 3.47561 3.01879 3.01867C3.47574 2.56172 4.02504 2.33325 4.66671 2.33325H23.3334C23.975 2.33325 24.5243 2.56172 24.9813 3.01867C25.4382 3.47561 25.6667 4.02492 25.6667 4.66659V18.6666C25.6667 19.3083 25.4382 19.8576 24.9813 20.3145C24.5243 20.7714 23.975 20.9999 23.3334 20.9999H7.00004L2.33337 25.6666ZM6.00837 18.6666H23.3334V4.66659H4.66671V19.9791L6.00837 18.6666Z" fill="#1C1B1F"/>
</g>
</svg>
