<svg width="28" height="28" viewBox="0 0 28 28" fill="none" xmlns="http://www.w3.org/2000/svg">
<mask id="mask0_410_3636" style="mask-type:alpha" maskUnits="userSpaceOnUse" x="0" y="0" width="28" height="28">
<rect width="28" height="28" fill="#D9D9D9"/>
</mask>
<g mask="url(#mask0_410_3636)">
<path d="M21 25.6666C20.0278 25.6666 19.2014 25.3263 18.5208 24.6458C17.8403 23.9652 17.5 23.1388 17.5 22.1666C17.5 22.0305 17.5097 21.8895 17.5292 21.7437C17.5486 21.5978 17.5778 21.4666 17.6167 21.3499L9.39167 16.5666C9.06111 16.8583 8.69167 17.0867 8.28333 17.252C7.875 17.4173 7.44722 17.4999 7 17.4999C6.02778 17.4999 5.20139 17.1596 4.52083 16.4791C3.84028 15.7985 3.5 14.9721 3.5 13.9999C3.5 13.0277 3.84028 12.2013 4.52083 11.5208C5.20139 10.8402 6.02778 10.4999 7 10.4999C7.44722 10.4999 7.875 10.5826 8.28333 10.7478C8.69167 10.9131 9.06111 11.1416 9.39167 11.4333L17.6167 6.64992C17.5778 6.53325 17.5486 6.402 17.5292 6.25617C17.5097 6.11034 17.5 5.96936 17.5 5.83325C17.5 4.86103 17.8403 4.03464 18.5208 3.35409C19.2014 2.67353 20.0278 2.33325 21 2.33325C21.9722 2.33325 22.7986 2.67353 23.4792 3.35409C24.1597 4.03464 24.5 4.86103 24.5 5.83325C24.5 6.80547 24.1597 7.63186 23.4792 8.31242C22.7986 8.99297 21.9722 9.33325 21 9.33325C20.5528 9.33325 20.125 9.25061 19.7167 9.08533C19.3083 8.92006 18.9389 8.69159 18.6083 8.39992L10.3833 13.1833C10.4222 13.2999 10.4514 13.4312 10.4708 13.577C10.4903 13.7228 10.5 13.8638 10.5 13.9999C10.5 14.136 10.4903 14.277 10.4708 14.4228C10.4514 14.5687 10.4222 14.6999 10.3833 14.8166L18.6083 19.5999C18.9389 19.3083 19.3083 19.0798 19.7167 18.9145C20.125 18.7492 20.5528 18.6666 21 18.6666C21.9722 18.6666 22.7986 19.0069 23.4792 19.6874C24.1597 20.368 24.5 21.1944 24.5 22.1666C24.5 23.1388 24.1597 23.9652 23.4792 24.6458C22.7986 25.3263 21.9722 25.6666 21 25.6666ZM21 6.99992C21.3306 6.99992 21.6076 6.88811 21.8312 6.6645C22.0549 6.44089 22.1667 6.16381 22.1667 5.83325C22.1667 5.5027 22.0549 5.22561 21.8312 5.002C21.6076 4.77839 21.3306 4.66659 21 4.66659C20.6694 4.66659 20.3924 4.77839 20.1688 5.002C19.9451 5.22561 19.8333 5.5027 19.8333 5.83325C19.8333 6.16381 19.9451 6.44089 20.1688 6.6645C20.3924 6.88811 20.6694 6.99992 21 6.99992ZM7 15.1666C7.33056 15.1666 7.60764 15.0548 7.83125 14.8312C8.05486 14.6076 8.16667 14.3305 8.16667 13.9999C8.16667 13.6694 8.05486 13.3923 7.83125 13.1687C7.60764 12.9451 7.33056 12.8333 7 12.8333C6.66944 12.8333 6.39236 12.9451 6.16875 13.1687C5.94514 13.3923 5.83333 13.6694 5.83333 13.9999C5.83333 14.3305 5.94514 14.6076 6.16875 14.8312C6.39236 15.0548 6.66944 15.1666 7 15.1666ZM21 23.3333C21.3306 23.3333 21.6076 23.2214 21.8312 22.9978C22.0549 22.7742 22.1667 22.4971 22.1667 22.1666C22.1667 21.836 22.0549 21.5589 21.8312 21.3353C21.6076 21.1117 21.3306 20.9999 21 20.9999C20.6694 20.9999 20.3924 21.1117 20.1688 21.3353C19.9451 21.5589 19.8333 21.836 19.8333 22.1666C19.8333 22.4971 19.9451 22.7742 20.1688 22.9978C20.3924 23.2214 20.6694 23.3333 21 23.3333Z" fill="#1C1B1F"/>
</g>
</svg>
