<svg width="454" height="196" viewBox="0 0 454 196" fill="none" xmlns="http://www.w3.org/2000/svg">
<path d="M102.206 137.871C102.399 134.136 103.414 130.829 105.252 127.95C107.091 125.034 109.501 122.809 112.481 121.274C115.497 119.741 118.781 119.066 122.333 119.249C126.508 119.465 130.099 120.66 133.108 122.835C136.116 125.009 138.239 127.983 139.476 131.755L133.489 131.446C132.546 129.084 131.1 127.229 129.15 125.88C127.237 124.533 124.889 123.787 122.106 123.643C119.433 123.505 117.003 124.004 114.815 125.139C112.626 126.275 110.869 127.965 109.541 130.209C108.216 132.417 107.473 135.059 107.315 138.135C107.158 141.174 107.624 143.879 108.713 146.248C109.804 148.581 111.38 150.424 113.439 151.779C115.499 153.134 117.865 153.88 120.538 154.018C123.321 154.162 125.733 153.68 127.772 152.574C129.851 151.433 131.48 149.737 132.661 147.484L138.648 147.794C137.031 151.382 134.614 154.102 131.398 155.956C128.183 157.772 124.489 158.573 120.314 158.357C116.762 158.174 113.564 157.183 110.72 155.384C107.914 153.55 105.745 151.106 104.214 148.053C102.683 145 102.014 141.606 102.206 137.871ZM158.615 160.5C155.795 160.354 153.265 159.581 151.024 158.18C148.82 156.782 147.12 154.876 145.922 152.465C144.764 150.018 144.265 147.239 144.425 144.127C144.584 141.051 145.383 138.375 146.822 136.099C148.3 133.789 150.225 132.071 152.596 130.945C154.969 129.783 157.584 129.275 160.44 129.423C163.296 129.57 165.844 130.344 168.085 131.745C170.328 133.109 172.048 134.997 173.245 137.409C174.479 139.822 175.016 142.585 174.855 145.698C174.694 148.81 173.857 151.521 172.342 153.829C170.866 156.102 168.924 157.82 166.514 158.98C164.104 160.141 161.471 160.647 158.615 160.5ZM158.842 156.106C160.636 156.198 162.342 155.864 163.96 155.103C165.578 154.342 166.907 153.144 167.946 151.509C169.022 149.876 169.622 147.851 169.747 145.434C169.871 143.017 169.501 140.942 168.636 139.208C167.771 137.475 166.59 136.165 165.094 135.28C163.599 134.359 161.955 133.852 160.161 133.759C158.33 133.665 156.624 133.999 155.042 134.761C153.499 135.49 152.227 136.672 151.224 138.309C150.222 139.946 149.658 141.973 149.534 144.39C149.407 146.844 149.739 148.935 150.531 150.665C151.36 152.397 152.503 153.722 153.961 154.642C155.421 155.525 157.048 156.013 158.842 156.106ZM218.426 132.361C220.77 132.482 222.831 133.084 224.611 134.168C226.393 135.214 227.765 136.735 228.726 138.731C229.688 140.727 230.097 143.116 229.953 145.899L229.037 163.64L224.094 163.385L224.973 146.358C225.128 143.355 224.496 141.028 223.076 139.375C221.694 137.689 219.74 136.78 217.213 136.65C214.613 136.515 212.501 137.251 210.876 138.856C209.253 140.424 208.36 142.783 208.198 145.932L207.341 162.52L202.398 162.265L203.277 145.237C203.432 142.235 202.8 139.907 201.379 138.255C199.998 136.568 198.044 135.66 195.517 135.529C192.917 135.395 190.805 136.131 189.18 137.736C187.557 139.304 186.664 141.663 186.502 144.812L185.645 161.4L180.647 161.142L182.201 131.042L187.199 131.3L186.975 135.639C188.045 134.116 189.426 132.975 191.117 132.218C192.845 131.463 194.716 131.137 196.73 131.241C199.257 131.372 201.461 132.055 203.343 133.29C205.225 134.525 206.586 136.266 207.424 138.512C208.376 136.432 209.853 134.856 211.854 133.784C213.855 132.713 216.046 132.238 218.426 132.361ZM265.485 135.342L263.931 165.442L258.933 165.184L259.162 160.735C258.131 162.223 256.732 163.363 254.966 164.153C253.238 164.908 251.348 165.233 249.298 165.127C246.954 165.006 244.873 164.421 243.055 163.373C241.238 162.287 239.831 160.746 238.833 158.749C237.871 156.753 237.462 154.364 237.606 151.581L238.516 133.949L243.459 134.205L242.583 151.177C242.43 154.143 243.062 156.47 244.481 158.159C245.901 159.811 247.911 160.704 250.51 160.839C253.184 160.977 255.332 160.261 256.955 158.693C258.578 157.125 259.471 154.766 259.633 151.617L260.487 135.084L265.485 135.342ZM288.618 135.985C292.28 136.174 295.188 137.444 297.343 139.795C299.5 142.11 300.471 145.354 300.255 149.528L299.339 167.27L294.396 167.015L295.275 149.987C295.43 146.985 294.798 144.657 293.378 143.005C291.96 141.316 289.951 140.405 287.351 140.271C284.714 140.135 282.566 140.85 280.906 142.416C279.283 143.985 278.391 146.343 278.228 149.493L277.369 166.135L272.37 165.877L273.924 135.777L278.923 136.036L278.702 140.32C279.77 138.833 281.168 137.712 282.896 136.957C284.66 136.203 286.568 135.879 288.618 135.985ZM311.892 132.836C310.94 132.787 310.152 132.416 309.527 131.723C308.901 131.03 308.613 130.207 308.663 129.255C308.712 128.303 309.083 127.514 309.776 126.889C310.469 126.264 311.292 125.976 312.244 126.025C313.159 126.073 313.911 126.442 314.5 127.133C315.125 127.826 315.413 128.649 315.364 129.601C315.315 130.553 314.943 131.342 314.25 131.967C313.594 132.594 312.808 132.883 311.892 132.836ZM314.057 137.849L312.503 167.949L307.504 167.691L309.058 137.591L314.057 137.849ZM319.937 153.133C320.095 150.057 320.857 147.398 322.221 145.155C323.587 142.876 325.383 141.151 327.61 139.981C329.873 138.813 332.36 138.299 335.069 138.439C337.413 138.56 339.563 139.221 341.521 140.424C343.48 141.59 344.945 143.079 345.916 144.892L346.739 128.963L351.792 129.224L349.693 169.87L344.64 169.609L344.932 163.951C343.851 165.694 342.309 167.102 340.308 168.173C338.309 169.208 336.009 169.659 333.409 169.524C330.736 169.386 328.335 168.602 326.206 167.17C324.114 165.74 322.507 163.803 321.384 161.359C320.262 158.914 319.78 156.172 319.937 153.133ZM345.42 154.504C345.537 152.233 345.181 150.232 344.353 148.501C343.524 146.769 342.346 145.423 340.816 144.463C339.326 143.468 337.647 142.923 335.779 142.826C333.912 142.73 332.186 143.081 330.603 143.881C329.02 144.68 327.727 145.898 326.724 147.536C325.722 149.173 325.162 151.126 325.045 153.397C324.926 155.704 325.279 157.741 326.106 159.51C326.935 161.241 328.094 162.605 329.585 163.599C331.077 164.558 332.757 165.085 334.625 165.181C336.492 165.278 338.218 164.926 339.801 164.127C341.423 163.293 342.735 162.057 343.738 160.42C344.742 158.746 345.303 156.774 345.42 154.504ZM357.055 155.049C357.214 151.973 357.975 149.314 359.34 147.072C360.706 144.792 362.502 143.068 364.728 141.898C366.992 140.729 369.46 140.214 372.133 140.352C374.769 140.488 377.029 141.174 378.911 142.409C380.793 143.645 382.166 145.148 383.029 146.918L383.313 141.425L388.366 141.686L386.812 171.786L381.759 171.525L382.048 165.922C380.968 167.629 379.41 169.017 377.372 170.087C375.372 171.122 373.073 171.572 370.473 171.438C367.8 171.3 365.417 170.516 363.325 169.086C361.232 167.657 359.625 165.719 358.503 163.275C357.381 160.831 356.898 158.089 357.055 155.049ZM382.538 156.42C382.656 154.15 382.3 152.149 381.471 150.417C380.643 148.685 379.464 147.34 377.935 146.379C376.444 145.385 374.765 144.839 372.898 144.743C371.03 144.646 369.305 144.998 367.721 145.797C366.138 146.596 364.845 147.815 363.843 149.452C362.84 151.089 362.281 153.043 362.163 155.313C362.044 157.62 362.398 159.658 363.225 161.426C364.053 163.158 365.213 164.521 366.703 165.516C368.196 166.474 369.876 167.001 371.743 167.098C373.611 167.194 375.336 166.843 376.92 166.043C378.542 165.209 379.854 163.973 380.856 162.336C381.86 160.662 382.421 158.69 382.538 156.42ZM394.174 156.966C394.332 153.89 395.094 151.231 396.458 148.988C397.824 146.709 399.62 144.984 401.847 143.814C404.11 142.646 406.597 142.132 409.306 142.272C411.65 142.393 413.8 143.054 415.758 144.257C417.717 145.423 419.182 146.912 420.153 148.724L420.976 132.796L426.029 133.056L423.93 173.702L418.877 173.441L419.169 167.784C418.088 169.527 416.547 170.935 414.545 172.006C412.546 173.041 410.246 173.491 407.646 173.357C404.973 173.219 402.572 172.434 400.443 171.003C398.351 169.573 396.744 167.636 395.621 165.191C394.499 162.747 394.017 160.005 394.174 156.966ZM419.657 158.337C419.774 156.066 419.418 154.065 418.59 152.334C417.762 150.602 416.583 149.256 415.053 148.296C413.563 147.301 411.884 146.755 410.016 146.659C408.149 146.563 406.423 146.914 404.84 147.713C403.257 148.513 401.964 149.731 400.961 151.368C399.959 153.005 399.399 154.959 399.282 157.23C399.163 159.536 399.517 161.574 400.343 163.342C401.172 165.074 402.331 166.437 403.822 167.432C405.314 168.39 406.994 168.918 408.862 169.014C410.73 169.111 412.455 168.759 414.038 167.96C415.66 167.126 416.972 165.89 417.975 164.253C418.979 162.579 419.54 160.607 419.657 158.337Z" fill="#1E3756"/>
<rect x="82.234" y="100.575" width="369.786" height="70.8483" transform="rotate(2.96 82.234 100.575)" stroke="#1E3756" stroke-width="3"/>
<path d="M40.32 106L26.304 80.56H22.368V106H5.952V38.608H33.504C38.816 38.608 43.328 39.536 47.04 41.392C50.816 43.248 53.632 45.808 55.488 49.072C57.344 52.272 58.272 55.856 58.272 59.824C58.272 64.304 56.992 68.304 54.432 71.824C51.936 75.344 48.224 77.84 43.296 79.312L58.848 106H40.32ZM22.368 68.944H32.544C35.552 68.944 37.792 68.208 39.264 66.736C40.8 65.264 41.568 63.184 41.568 60.496C41.568 57.936 40.8 55.92 39.264 54.448C37.792 52.976 35.552 52.24 32.544 52.24H22.368V68.944ZM119.073 78.352C119.073 79.888 118.977 81.488 118.785 83.152H81.633C81.889 86.48 82.945 89.04 84.801 90.832C86.721 92.56 89.057 93.424 91.809 93.424C95.905 93.424 98.753 91.696 100.353 88.24H117.825C116.929 91.76 115.297 94.928 112.929 97.744C110.625 100.56 107.713 102.768 104.193 104.368C100.673 105.968 96.737 106.768 92.385 106.768C87.137 106.768 82.465 105.648 78.369 103.408C74.273 101.168 71.073 97.968 68.769 93.808C66.465 89.648 65.313 84.784 65.313 79.216C65.313 73.648 66.433 68.784 68.673 64.624C70.977 60.464 74.177 57.264 78.273 55.024C82.369 52.784 87.073 51.664 92.385 51.664C97.569 51.664 102.177 52.752 106.209 54.928C110.241 57.104 113.377 60.208 115.617 64.24C117.921 68.272 119.073 72.976 119.073 78.352ZM102.273 74.032C102.273 71.216 101.313 68.976 99.393 67.312C97.473 65.648 95.073 64.816 92.193 64.816C89.441 64.816 87.105 65.616 85.185 67.216C83.329 68.816 82.177 71.088 81.729 74.032H102.273ZM124.469 79.12C124.469 73.616 125.493 68.784 127.541 64.624C129.653 60.464 132.501 57.264 136.085 55.024C139.669 52.784 143.669 51.664 148.085 51.664C151.605 51.664 154.805 52.4 157.685 53.872C160.629 55.344 162.933 57.328 164.597 59.824V34.96H181.013V106H164.597V98.32C163.061 100.88 160.853 102.928 157.973 104.464C155.157 106 151.861 106.768 148.085 106.768C143.669 106.768 139.669 105.648 136.085 103.408C132.501 101.104 129.653 97.872 127.541 93.712C125.493 89.488 124.469 84.624 124.469 79.12ZM164.597 79.216C164.597 75.12 163.445 71.888 161.141 69.52C158.901 67.152 156.149 65.968 152.885 65.968C149.621 65.968 146.837 67.152 144.533 69.52C142.293 71.824 141.173 75.024 141.173 79.12C141.173 83.216 142.293 86.48 144.533 88.912C146.837 91.28 149.621 92.464 152.885 92.464C156.149 92.464 158.901 91.28 161.141 88.912C163.445 86.544 164.597 83.312 164.597 79.216Z" fill="#F7BD22"/>
</svg>
